# xmcd
#
# Track frame offsets:
#	150
#	11907
#	21640
#	34405
#	45034
#	55341
#	64467
#	76088
#	87692
#	97594
#	108638
#	120126
#	131516
#	141660
#	150205
#	162988
#	172959
#	183750
#	195213
#	207529
#	218012
#	230602
#	239560
#	250040
#	260032
#
# Disc length: 3603 seconds
#
# Revision: 0
# Processed by: cddbd v1.5.2PL0 Copyright (c) Steve Scherf et al.
# Submitted via: audiograbber 1.83.01
#
DISCID=560e1119
DTITLE=Various Artist - Doo Wopp For Dummies Vol 2
DYEAR=1900
DGENRE=
TTITLE0=Rivals - Rigetty Tick
TTITLE1=Chalets - Fat Fat Fat Momio
TTITLE2=Midnighters - Ring A Ling A Ling
TTITLE3=Squires - Do Be Do Be Wop Wop
TTITLE4=Five Dapps - Do Whop A Do
TTITLE5=Fred Green And Group - Wham Slam Bam
TTITLE6=Cashmeres - Boom Mag Azeno
TTITLE7=Pearls - Zippity Zippity Zoom
TTITLE8=Saucers - Hi Oom
TTITLE9=Dreamlovers - Zoom Zoom Zoom
TTITLE10=Marvellos - Boyee Yoing
TTITLE11=Incredible Upsetters - Oo Wah Cha Wah
TTITLE12=Sandy Powell And Group - Bon Bon
TTITLE13=Jewels - Rickety Rock
TTITLE14=Velveteers - Boo Wacka Boo
TTITLE15=Platters - Voo Vee Ah Bee
TTITLE16=Pyramids - Bow Wow
TTITLE17=Midnighters - Switchie Witchie Tichie
TTITLE18=Bonnevilles - Zu Zu
TTITLE19=Tremaines - Jingle Jingle
TTITLE20=Metallics - Itchy Twitchy Too
TTITLE21=Senators - Tafu
TTITLE22=Atlantics - Boo Hoo Hoo
TTITLE23=Mint Juleps - Vip A Dip
TTITLE24=Danderliers - Chop Chop Boom
EXTD=
EXTT0=
EXTT1=
EXTT2=
EXTT3=
EXTT4=
EXTT5=
EXTT6=
EXTT7=
EXTT8=
EXTT9=
EXTT10=
EXTT11=
EXTT12=
EXTT13=
EXTT14=
EXTT15=
EXTT16=
EXTT17=
EXTT18=
EXTT19=
EXTT20=
EXTT21=
EXTT22=
EXTT23=
EXTT24=
PLAYORDER=
